<svg width="18" height="18" viewBox="0 0 18 18" fill="none" xmlns="http://www.w3.org/2000/svg">
<path fill-rule="evenodd" clip-rule="evenodd" d="M16.7612 0.617188H0.75173C0.439349 0.617188 0.166016 0.890521 0.166016 1.2029V2.37433C0.166016 2.68671 0.439349 2.96004 0.75173 2.96004H16.7612C17.0736 2.96004 17.347 2.68671 17.347 2.37433V1.2029C17.347 0.890521 17.0736 0.617188 16.7612 0.617188V0.617188ZM16.7612 5.3029H3.87551C3.56313 5.3029 3.28979 5.57624 3.28979 5.88862V7.06005C3.28979 7.37243 3.56313 7.64576 3.87551 7.64576H16.7612C17.0736 7.64576 17.3469 7.37243 17.3469 7.06005V5.88862C17.3469 5.57624 17.0736 5.3029 16.7612 5.3029V5.3029ZM16.7612 14.6743H3.87551C3.56313 14.6743 3.28979 14.9477 3.28979 15.26V16.4315C3.28979 16.7439 3.56313 17.0172 3.87551 17.0172H16.7612C17.0736 17.0172 17.3469 16.7439 17.3469 16.4315V15.26C17.3469 14.9477 17.0736 14.6743 16.7612 14.6743V14.6743ZM16.7612 9.98862H0.75173C0.439349 9.98862 0.166016 10.262 0.166016 10.5743V11.7458C0.166016 12.0581 0.439349 12.3315 0.75173 12.3315H16.7612C17.0736 12.3315 17.347 12.0581 17.347 11.7458V10.5743C17.347 10.262 17.0736 9.98862 16.7612 9.98862V9.98862Z" fill="#54698D"/>
</svg>
