<svg width="18" height="18" viewBox="0 0 18 18" fill="none" xmlns="http://www.w3.org/2000/svg">
<path fill-rule="evenodd" clip-rule="evenodd" d="M17.1809 1.2029C17.1809 0.890521 16.9076 0.617188 16.5952 0.617188H0.585714C0.273333 0.617188 0 0.890521 0 1.2029V2.37433C0 2.68671 0.273333 2.96004 0.585714 2.96004H16.5952C16.9076 2.96004 17.1809 2.68671 17.1809 2.37433V1.2029V1.2029ZM14.8381 5.88862C14.8381 5.57624 14.5648 5.3029 14.2524 5.3029H2.9286C2.61622 5.3029 2.34288 5.57624 2.34288 5.88862V7.06005C2.34288 7.37243 2.61622 7.64576 2.9286 7.64576H14.2524C14.5648 7.64576 14.8381 7.37243 14.8381 7.06005V5.88862V5.88862ZM14.0571 15.26C14.0571 14.9477 13.7838 14.6743 13.4714 14.6743H3.70949C3.39711 14.6743 3.12378 14.9477 3.12378 15.26V16.4315C3.12378 16.7439 3.39711 17.0172 3.70949 17.0172H13.4714C13.7838 17.0172 14.0571 16.7439 14.0571 16.4315V15.26V15.26ZM17.1809 10.5743C17.1809 10.262 16.9076 9.98862 16.5952 9.98862H0.585714C0.273333 9.98862 0 10.262 0 10.5743V11.7458C0 12.0581 0.273333 12.3315 0.585714 12.3315H16.5952C16.9076 12.3315 17.1809 12.0581 17.1809 11.7458V10.5743V10.5743Z" fill="#54698D"/>
</svg>
