<svg width="19" height="18" viewBox="0 0 19 18" fill="none" xmlns="http://www.w3.org/2000/svg">
<path fill-rule="evenodd" clip-rule="evenodd" d="M18.013 1.2029C18.013 0.890521 17.7396 0.617188 17.4273 0.617188H1.41775C1.10536 0.617188 0.832031 0.890521 0.832031 1.2029V2.37433C0.832031 2.68671 1.10536 2.96004 1.41775 2.96004H17.4273C17.7396 2.96004 18.013 2.68671 18.013 2.37433V1.2029V1.2029ZM14.8892 5.88862C14.8892 5.57624 14.6158 5.3029 14.3035 5.3029H1.41775C1.10536 5.3029 0.832031 5.57624 0.832031 5.88862V7.06005C0.832031 7.37243 1.10536 7.64576 1.41775 7.64576H14.3035C14.6158 7.64576 14.8892 7.37243 14.8892 7.06005V5.88862V5.88862ZM14.8892 15.26C14.8892 14.9477 14.6158 14.6743 14.3035 14.6743H1.41775C1.10536 14.6743 0.832031 14.9477 0.832031 15.26V16.4315C0.832031 16.7439 1.10536 17.0172 1.41775 17.0172H14.3035C14.6158 17.0172 14.8892 16.7439 14.8892 16.4315V15.26V15.26ZM18.013 10.5743C18.013 10.262 17.7396 9.98862 17.4273 9.98862H1.41775C1.10536 9.98862 0.832031 10.262 0.832031 10.5743V11.7458C0.832031 12.0581 1.10536 12.3315 1.41775 12.3315H17.4273C17.7396 12.3315 18.013 12.0581 18.013 11.7458V10.5743V10.5743Z" fill="#54698D"/>
</svg>
