<svg width="17" height="18" viewBox="0 0 17 18" fill="none" xmlns="http://www.w3.org/2000/svg">
<path fill-rule="evenodd" clip-rule="evenodd" d="M8.52797 5.08991L10.1307 8.81719H6.77615L8.22978 5.08991H8.52797V5.08991ZM16.7652 2.1081V15.5263C16.7652 16.3463 16.0943 17.0172 15.2743 17.0172H1.85614C1.03614 17.0172 0.365234 16.3463 0.365234 15.5263V2.1081C0.365234 1.2881 1.03614 0.617188 1.85614 0.617188H15.2743C16.0943 0.617188 16.7652 1.2881 16.7652 2.1081V2.1081ZM14.7152 14.2963L10.2425 3.22628C10.1306 3.00264 9.94428 2.85355 9.68337 2.85355H7.03701C6.81337 2.85355 6.58974 3.00264 6.51519 3.22628L2.41519 14.2963C2.34065 14.5199 2.48974 14.7808 2.75065 14.7808H4.27883C4.50246 14.7808 4.7261 14.5945 4.80065 14.3708L5.99337 11.0536H10.9879L12.2925 14.3708C12.367 14.5945 12.5906 14.7808 12.8143 14.7808H14.3425C14.6034 14.7808 14.7897 14.5199 14.7152 14.2963V14.2963Z" fill="#54698D"/>
</svg>
