<svg width="13" height="18" viewBox="0 0 13 18" fill="none" xmlns="http://www.w3.org/2000/svg">
<path fill-rule="evenodd" clip-rule="evenodd" d="M12.7482 5.49286C12.7482 2.8334 10.6601 0.617188 8.18056 0.617188H1.00284C0.524324 0.617188 0.132812 1.01611 0.132812 1.50367V16.1307C0.132812 16.6183 0.524324 17.0172 1.00284 17.0172H8.18056C10.6601 17.0172 12.7482 14.801 12.7482 12.1415C12.7482 10.8561 12.2697 9.70367 11.4867 8.81719C12.2697 7.9307 12.7482 6.77827 12.7482 5.49286V5.49286ZM8.18053 13.9145H3.17787V10.3685H8.18053C9.00705 10.3685 9.74657 11.2107 9.74657 12.1415C9.74657 13.0723 9.00705 13.9145 8.18053 13.9145V13.9145ZM8.18053 7.26583H3.17787V3.71989H8.18053C9.00705 3.71989 9.74657 4.56205 9.74657 5.49286C9.74657 6.42367 9.00705 7.26583 8.18053 7.26583V7.26583Z" fill="#54698D"/>
</svg>
