<svg width="18" height="12" viewBox="0 0 18 12" fill="none" xmlns="http://www.w3.org/2000/svg">
<path fill-rule="evenodd" clip-rule="evenodd" d="M2.91523 0.863086C2.91523 0.589753 2.67607 0.350586 2.40273 0.350586H1.37773C1.1044 0.350586 0.865234 0.589753 0.865234 0.863086V1.88809C0.865234 2.16142 1.1044 2.40059 1.37773 2.40059H2.40273C2.67607 2.40059 2.91523 2.16142 2.91523 1.88809V0.863086V0.863086ZM17.2652 0.863086C17.2652 0.589753 17.0261 0.350586 16.7527 0.350586H4.7944C4.52107 0.350586 4.2819 0.589753 4.2819 0.863086V1.88809C4.2819 2.16142 4.52107 2.40059 4.7944 2.40059H16.7527C17.0261 2.40059 17.2652 2.16142 17.2652 1.88809V0.863086V0.863086ZM2.91523 5.64642C2.91523 5.37309 2.67607 5.13392 2.40273 5.13392H1.37773C1.1044 5.13392 0.865234 5.37309 0.865234 5.64642V6.67142C0.865234 6.94475 1.1044 7.18392 1.37773 7.18392H2.40273C2.67607 7.18392 2.91523 6.94475 2.91523 6.67142V5.64642V5.64642ZM15.8986 5.64642C15.8986 5.37309 15.6594 5.13392 15.3861 5.13392H4.7944C4.52107 5.13392 4.2819 5.37309 4.2819 5.64642V6.67142C4.2819 6.94475 4.52107 7.18392 4.7944 7.18392H15.3861C15.6594 7.18392 15.8986 6.94475 15.8986 6.67142V5.64642V5.64642ZM2.91523 10.4298C2.91523 10.1564 2.67607 9.91725 2.40273 9.91725H1.37773C1.1044 9.91725 0.865234 10.1564 0.865234 10.4298V11.4548C0.865234 11.7281 1.1044 11.9673 1.37773 11.9673H2.40273C2.67607 11.9673 2.91523 11.7281 2.91523 11.4548V10.4298V10.4298ZM17.2652 10.4298C17.2652 10.1564 17.0261 9.91725 16.7527 9.91725H4.7944C4.52107 9.91725 4.2819 10.1564 4.2819 10.4298V11.4548C4.2819 11.7281 4.52107 11.9673 4.7944 11.9673H16.7527C17.0261 11.9673 17.2652 11.7281 17.2652 11.4548V10.4298V10.4298Z" fill="#54698D"/>
</svg>
