<svg width="17" height="18" viewBox="0 0 17 18" fill="none" xmlns="http://www.w3.org/2000/svg">
<path fill-rule="evenodd" clip-rule="evenodd" d="M15.3254 13.908L16.8971 12.3364C17.0338 12.1997 17.0338 11.9947 16.8971 11.858L15.9404 10.9014C15.8038 10.7647 15.5988 10.7647 15.4621 10.9014L13.9246 12.5072L12.4554 11.038C12.3188 10.9014 12.1138 10.9014 11.9771 11.038L11.0204 11.9947C10.8838 12.1314 10.8838 12.3364 11.0204 12.473L12.4896 13.9422L11.0546 15.3772C10.9179 15.5139 10.9179 15.7189 11.0546 15.8555L12.0113 16.8122C12.1479 16.9489 12.3529 16.9489 12.4896 16.8122L13.9246 15.3772L15.4621 16.9147C15.5988 17.0514 15.8038 17.0514 15.9404 16.9147L16.8971 15.958C17.0338 15.8214 17.0338 15.6164 16.8971 15.4797L15.3254 13.908V13.908ZM1.55626 2.66719H5.24625L3.84542 10.5939C3.77709 10.9355 4.01625 11.2089 4.32375 11.2089H6.06625C6.30541 11.2089 6.54458 11.038 6.57875 10.7989L8.01374 2.66719H11.7721C12.0112 2.66719 12.2504 2.49635 12.2846 2.22302L12.4554 1.19802C12.5237 0.890521 12.2846 0.617188 11.9429 0.617188H1.69292C1.45376 0.617188 1.24876 0.788021 1.21459 1.06135L1.04376 2.08635C0.975426 2.39385 1.21459 2.66719 1.55626 2.66719V2.66719ZM9.48292 13.088C9.48292 12.8147 9.24376 12.5755 8.97042 12.5755H1.11211C0.838775 12.5755 0.599609 12.8147 0.599609 13.088V14.113C0.599609 14.3864 0.838775 14.6255 1.11211 14.6255H8.97042C9.24376 14.6255 9.48292 14.3864 9.48292 14.113V13.088V13.088Z" fill="#54698D"/>
</svg>
