<svg width="19" height="18" viewBox="0 0 19 18" fill="none" xmlns="http://www.w3.org/2000/svg">
<path fill-rule="evenodd" clip-rule="evenodd" d="M3.59773 12.5445H5.12592C5.34955 12.5445 5.57319 12.3581 5.64773 12.1345L6.84046 8.81719H11.835L13.1396 12.1345C13.2141 12.3581 13.4377 12.5445 13.6614 12.5445H15.1895C15.4505 12.5445 15.6368 12.2836 15.525 12.0599L11.0523 0.989915C10.9777 0.766278 10.7914 0.617188 10.5677 0.617188H7.92137C7.69773 0.617188 7.4741 0.766278 7.39955 0.989915L3.29955 12.0599C3.18773 12.2836 3.3741 12.5445 3.59773 12.5445V12.5445ZM9.07681 2.85355H9.41226L11.015 6.58082H7.66045L9.07681 2.85355V2.85355ZM17.7986 14.7808H1.02589C0.727706 14.7808 0.466797 15.0417 0.466797 15.3399V16.4581C0.466797 16.7563 0.727706 17.0172 1.02589 17.0172H17.7986C18.0968 17.0172 18.3577 16.7563 18.3577 16.4581V15.3399C18.3577 15.0417 18.0968 14.7808 17.7986 14.7808V14.7808Z" fill="#54698D"/>
</svg>
