<svg width="18" height="15" viewBox="0 0 18 15" fill="none" xmlns="http://www.w3.org/2000/svg">
<path fill-rule="evenodd" clip-rule="evenodd" d="M17.3669 2.35007C17.3669 1.5984 16.7519 0.983398 16.0002 0.983398H2.33347C1.5818 0.983398 0.966797 1.5984 0.966797 2.35007V13.2834C0.966797 14.0351 1.5818 14.6501 2.33347 14.6501H16.0002C16.7519 14.6501 17.3669 14.0351 17.3669 13.2834V2.35007V2.35007ZM13.8135 11.9167H3.90519C3.4952 11.9167 3.25603 11.4726 3.46103 11.1309L6.46768 5.9034C6.60434 5.66423 6.91184 5.66423 7.04851 5.9034L8.85933 9.01257C8.99599 9.21757 9.30349 9.25173 9.44016 9.04673L10.9093 6.9284C11.046 6.7234 11.3535 6.7234 11.4901 6.9284L14.1893 11.2334C14.3943 11.5409 14.1893 11.9167 13.8135 11.9167V11.9167ZM12.9252 5.76673C12.1735 5.76673 11.5585 5.15173 11.5585 4.40006C11.5585 3.6484 12.1735 3.0334 12.9252 3.0334C13.6769 3.0334 14.2919 3.6484 14.2919 4.40006C14.2919 5.15173 13.6769 5.76673 12.9252 5.76673V5.76673Z" fill="#54698D"/>
</svg>
