<svg width="21" height="18" viewBox="0 0 21 18" fill="none" xmlns="http://www.w3.org/2000/svg">
<path fill-rule="evenodd" clip-rule="evenodd" d="M20.2139 3.41264C20.2139 3.11446 19.953 2.85355 19.6548 2.85355H13.3184C13.0202 2.85355 12.7593 3.11446 12.7593 3.41264V4.53082C12.7593 4.82901 13.0202 5.08992 13.3184 5.08992H19.6548C19.953 5.08992 20.2139 4.82901 20.2139 4.53082V3.41264V3.41264ZM18.723 12.3581C18.723 12.0599 18.462 11.799 18.1639 11.799H13.3184C13.0202 11.799 12.7593 12.0599 12.7593 12.3581V13.4763C12.7593 13.7745 13.0202 14.0354 13.3184 14.0354H18.1639C18.462 14.0354 18.723 13.7745 18.723 13.4763V12.3581V12.3581ZM20.2139 7.88537C20.2139 7.58719 19.953 7.32628 19.6548 7.32628H13.3184C13.0202 7.32628 12.7593 7.58719 12.7593 7.88537V9.00355C12.7593 9.30173 13.0202 9.56264 13.3184 9.56264H19.6548C19.953 9.56264 20.2139 9.30173 20.2139 9.00355V7.88537V7.88537ZM11.2684 1.17628C11.2684 0.878097 11.0075 0.617188 10.7093 0.617188H9.59112C9.29294 0.617188 9.03203 0.878097 9.03203 1.17628V16.4581C9.03203 16.7563 9.29294 17.0172 9.59112 17.0172H10.7093C11.0075 17.0172 11.2684 16.7563 11.2684 16.4581V1.17628V1.17628ZM4.33567 4.82901C4.11203 4.60537 3.81385 4.79173 3.81385 5.16446V7.32628H1.39112C1.09294 7.32628 0.832031 7.58719 0.832031 7.88537V9.00355C0.832031 9.30174 1.09294 9.56264 1.39112 9.56264H3.81385V11.7617C3.81385 12.1345 4.1493 12.3208 4.33567 12.0972L7.4293 8.74264C7.54112 8.59355 7.54112 8.36992 7.4293 8.22083L4.33567 4.82901V4.82901Z" fill="#54698D"/>
</svg>
