<svg width="20" height="18" viewBox="0 0 20 18" fill="none" xmlns="http://www.w3.org/2000/svg">
<path fill-rule="evenodd" clip-rule="evenodd" d="M6.08477 7.32628H3.69932V5.12719C3.69932 4.75446 3.36386 4.56809 3.1775 4.79173L0.0838636 8.14628C-0.0279545 8.29537 -0.0279545 8.519 0.0838636 8.66809L3.1775 12.0226C3.40114 12.2463 3.69932 12.0599 3.69932 11.6872V9.56264H6.08477C6.38296 9.56264 6.68114 9.30173 6.68114 9.00355V7.88537C6.68114 7.58719 6.38296 7.32628 6.08477 7.32628V7.32628ZM19.3538 3.41264C19.3538 3.11446 19.0929 2.85355 18.7948 2.85355H12.4584C12.1602 2.85355 11.8993 3.11446 11.8993 3.41264V4.53082C11.8993 4.82901 12.1602 5.08992 12.4584 5.08992H18.7948C19.0929 5.08992 19.3538 4.82901 19.3538 4.53082V3.41264V3.41264ZM17.8629 12.3581C17.8629 12.0599 17.602 11.799 17.3039 11.799H12.4584C12.1602 11.799 11.8993 12.0599 11.8993 12.3581V13.4763C11.8993 13.7745 12.1602 14.0354 12.4584 14.0354H17.3039C17.602 14.0354 17.8629 13.7745 17.8629 13.4763V12.3581V12.3581ZM19.3538 7.88537C19.3538 7.58719 19.0929 7.32628 18.7948 7.32628H12.4584C12.1602 7.32628 11.8993 7.58719 11.8993 7.88537V9.00355C11.8993 9.30173 12.1602 9.56264 12.4584 9.56264H18.7948C19.0929 9.56264 19.3538 9.30173 19.3538 9.00355V7.88537V7.88537ZM10.4084 1.17628C10.4084 0.878097 10.1475 0.617188 9.8493 0.617188H8.73112C8.43294 0.617188 8.17203 0.878097 8.17203 1.17628V16.4581C8.17203 16.7563 8.43294 17.0172 8.73112 17.0172H9.8493C10.1475 17.0172 10.4084 16.7563 10.4084 16.4581V1.17628V1.17628Z" fill="#54698D"/>
</svg>
