<svg width="13" height="18" viewBox="0 0 13 18" fill="none" xmlns="http://www.w3.org/2000/svg">
<path fill-rule="evenodd" clip-rule="evenodd" d="M12.232 2.16347V1.55433C12.232 1.0389 11.8103 0.617188 11.2949 0.617188H4.7349C4.21947 0.617188 3.79776 1.0389 3.79776 1.55433V2.49147C3.79776 3.0069 4.21947 3.42862 4.7349 3.42862C5.53147 3.42862 6.14061 4.17833 5.95319 4.92804L4.26633 13.1749C4.12576 13.784 3.61033 14.2058 3.04804 14.2058H1.92347C1.40804 14.2058 0.986328 14.6275 0.986328 15.1429V16.08C0.986328 16.5955 1.40804 17.0172 1.92347 17.0172H8.48347C8.9989 17.0172 9.42061 16.5955 9.42061 16.08V15.1429C9.42061 14.6275 8.9989 14.2058 8.48347 14.2058C7.6869 14.2058 7.07776 13.456 7.26519 12.7063L8.95204 4.45947C9.09261 3.85033 9.60804 3.42862 10.1703 3.42862H10.9669C11.6698 3.42862 12.232 2.86633 12.232 2.16347V2.16347Z" fill="#54698D"/>
</svg>
