<svg width="17" height="17" viewBox="0 0 17 17" fill="none" xmlns="http://www.w3.org/2000/svg">
<path fill-rule="evenodd" clip-rule="evenodd" d="M8.57009 13.8396L7.86724 13.7392C7.86724 13.7392 7.39867 13.6388 7.16438 13.5384C7.0305 13.5049 6.86316 13.5384 6.76275 13.6388L6.5954 13.8062C5.62479 14.7768 4.05174 14.8772 3.04766 14.007C1.9097 13.0364 1.87623 11.296 2.91378 10.2584L5.45745 7.71474C5.79214 7.38004 6.19377 7.17923 6.5954 7.04535C7.13091 6.91147 7.69989 6.94494 8.20193 7.14576C8.50315 7.27963 8.80438 7.44698 9.07213 7.71474C9.20601 7.84861 9.30642 7.98249 9.40682 8.14984C9.5407 8.38412 9.84192 8.41759 10.0093 8.21678L10.9464 7.27963C11.0803 7.14576 11.0803 6.94494 10.9799 6.77759C10.846 6.57678 10.6787 6.40943 10.5113 6.24208C10.277 6.0078 10.0093 5.77351 9.70805 5.60616C9.23948 5.30494 8.70397 5.10412 8.13499 5.00372C7.09744 4.8029 5.95949 4.97025 5.02235 5.47229C4.65418 5.6731 4.28602 5.94086 3.9848 6.24208L1.54154 8.68535C-0.232336 10.4592 -0.366213 13.3376 1.34072 15.1449C3.11459 17.0862 6.12683 17.1196 7.96764 15.2788L8.80438 14.4421C9.03866 14.2747 8.87131 13.8731 8.57009 13.8396V13.8396ZM14.7285 1.82412C12.8876 0.117184 10.0093 0.251062 8.26884 2.02494L7.49904 2.76127C7.26476 2.99555 7.43211 3.39718 7.73333 3.43065C8.20191 3.46412 8.67048 3.56453 9.13905 3.69841C9.27293 3.73188 9.44028 3.69841 9.54069 3.598L9.70803 3.43065C10.6787 2.46004 12.2517 2.35963 13.2558 3.22984C14.3938 4.20045 14.4272 5.94086 13.3897 6.97841L10.846 9.52208C10.5113 9.85678 10.1097 10.0576 9.70803 10.1915C9.17252 10.3253 8.60354 10.2919 8.1015 10.0911C7.80027 9.95718 7.49905 9.78984 7.23129 9.52208C7.09741 9.38821 6.997 9.25433 6.89659 9.08698C6.76272 8.85269 6.46149 8.81923 6.29414 9.02004L5.357 9.95718C5.22312 10.0911 5.22312 10.2919 5.32353 10.4592C5.4574 10.66 5.62475 10.8274 5.7921 10.9947C6.02639 11.229 6.32761 11.4633 6.59537 11.6307C7.06394 11.9319 7.59945 12.1327 8.13497 12.2331C9.17252 12.4339 10.3105 12.2666 11.2476 11.7645C11.6158 11.5637 11.984 11.296 12.2852 10.9947L14.8289 8.45106C16.7032 6.61025 16.6362 3.598 14.7285 1.82412V1.82412Z" fill="#54698D"/>
</svg>
