<svg width="17" height="17" viewBox="0 0 17 17" fill="none" xmlns="http://www.w3.org/2000/svg">
<path fill-rule="evenodd" clip-rule="evenodd" d="M16.4332 1.83757V2.86257C16.4332 3.1359 16.194 3.37507 15.9207 3.37507H6.6957C6.42237 3.37507 6.1832 3.1359 6.1832 2.86257V1.83757C6.1832 1.56423 6.42237 1.32507 6.6957 1.32507H15.9207C16.194 1.32507 16.4332 1.56423 16.4332 1.83757V1.83757ZM6.6957 6.79173H12.8457C13.119 6.79173 13.3582 6.55257 13.3582 6.27923V5.25423C13.3582 4.9809 13.119 4.74173 12.8457 4.74173H6.6957C6.42237 4.74173 6.1832 4.9809 6.1832 5.25423V6.27923C6.1832 6.55257 6.42237 6.79173 6.6957 6.79173V6.79173ZM15.9207 9.86673H6.6957C6.42237 9.86673 6.1832 10.1059 6.1832 10.3792V11.4042C6.1832 11.6776 6.42237 11.9167 6.6957 11.9167H15.9207C16.194 11.9167 16.4332 11.6776 16.4332 11.4042V10.3792C16.4332 10.1059 16.194 9.86673 15.9207 9.86673V9.86673ZM12.8457 13.2834H6.6957C6.42237 13.2834 6.1832 13.5226 6.1832 13.7959V14.8209C6.1832 15.0942 6.42237 15.3334 6.6957 15.3334H12.8457C13.119 15.3334 13.3582 15.0942 13.3582 14.8209V13.7959C13.3582 13.5226 13.119 13.2834 12.8457 13.2834V13.2834ZM0.545704 2.35007H1.39987V6.6209C1.39987 6.89423 1.63904 7.1334 1.91237 7.1334H2.25404C2.52737 7.1334 2.76654 6.89423 2.76654 6.6209V1.66673C2.76654 1.2909 2.45904 0.983398 2.08321 0.983398H0.545704C0.27237 0.983398 0.0332031 1.22257 0.0332031 1.4959V1.83757C0.0332031 2.1109 0.27237 2.35007 0.545704 2.35007V2.35007ZM3.44987 9.1834H0.545703C0.27237 9.1834 0.0332031 9.42257 0.0332031 9.6959V10.0376C0.0332031 10.3109 0.27237 10.5501 0.545703 10.5501H2.76654V11.9167H0.716536C0.340703 11.9167 0.0332031 12.2242 0.0332031 12.6001V15.3334C0.0332031 15.7092 0.340703 16.0167 0.716536 16.0167H3.6207C3.89404 16.0167 4.1332 15.7776 4.1332 15.5042V15.1626C4.1332 14.8892 3.89404 14.6501 3.6207 14.6501H1.39987V13.2834H3.44987C3.8257 13.2834 4.1332 12.9759 4.1332 12.6001V9.86673C4.1332 9.4909 3.8257 9.1834 3.44987 9.1834V9.1834Z" fill="#54698D"/>
</svg>
