<svg width="18" height="17" viewBox="0 0 18 17" fill="none" xmlns="http://www.w3.org/2000/svg">
<path fill-rule="evenodd" clip-rule="evenodd" d="M4.34925 6.11802C4.28092 5.77635 4.24675 5.36635 4.24675 4.95635C4.24675 4.51219 4.34925 3.99969 4.55425 3.52135C4.75925 3.00885 5.06675 2.53052 5.51092 2.12052C5.92092 1.71052 6.50175 1.33469 7.15092 1.06135C7.83425 0.788021 8.62008 0.617188 9.57675 0.617188C10.4309 0.617188 11.2509 0.719688 12.0367 0.958854C12.6517 1.16385 13.2326 1.50552 13.7451 1.98385C13.9501 2.18885 13.9501 2.53052 13.7109 2.73552L12.7884 3.58969C12.5834 3.76052 12.2759 3.79469 12.0709 3.58969C11.8317 3.35052 11.5584 3.14552 11.2509 2.97469C10.7726 2.73552 10.2259 2.59885 9.57675 2.59885C8.99592 2.59885 8.48342 2.66719 8.10758 2.83802C7.73175 3.00885 7.39008 3.17969 7.15092 3.45302C6.91175 3.72635 6.74092 3.96552 6.63842 4.23885C6.53592 4.51219 6.50175 4.78552 6.50175 4.99052C6.50175 5.36635 6.57008 5.67385 6.67258 5.94719C6.77508 6.18635 6.60425 6.42552 6.36508 6.42552H4.69092C4.52008 6.42552 4.38342 6.25469 4.34925 6.11802V6.11802ZM13.8476 11.2089H12.1393C11.9001 11.2089 11.7293 11.448 11.8318 11.653C11.9343 11.858 11.9685 12.1314 11.9685 12.4047C11.9685 12.8147 11.866 13.1905 11.6951 13.5322C11.4901 13.8739 11.251 14.113 10.9435 14.3522C10.636 14.5572 10.2943 14.728 9.91845 14.8305C9.54262 14.933 9.20095 15.0014 8.82512 15.0014C8.17595 15.0014 7.56095 14.8647 6.98012 14.5914C6.53595 14.3864 6.16012 14.113 5.81845 13.7372C5.64762 13.5322 5.30595 13.498 5.10095 13.6689L4.14429 14.4889C3.93929 14.6597 3.90512 15.0014 4.11012 15.2064C4.58845 15.753 5.20345 16.163 5.92095 16.4364C6.80929 16.778 7.76595 16.9489 8.79095 16.9489C9.54262 16.9489 10.2601 16.8464 10.9093 16.6072C11.5585 16.4022 12.1393 16.0605 12.6518 15.6505C13.1301 15.2405 13.5401 14.728 13.8135 14.113C14.0868 13.498 14.2576 12.8489 14.2576 12.0972C14.2576 11.8239 14.2576 11.653 14.2235 11.4139C14.1551 11.3455 14.0185 11.2089 13.8476 11.2089V11.2089ZM17.2643 8.09969C17.1959 7.89469 16.9909 7.79219 16.7859 7.79219H1.41094C1.17177 7.79219 1.00094 7.89469 0.932604 8.09969C0.898437 8.16802 0.898438 8.20219 0.898438 8.27052V9.29552C0.898438 9.56885 1.1376 9.84219 1.41094 9.84219H16.7859C17.0593 9.84219 17.2984 9.56885 17.2984 9.29552V8.27052C17.2984 8.20219 17.2984 8.16802 17.2643 8.09969V8.09969Z" fill="#54698D"/>
</svg>
