<svg width="18" height="18" viewBox="0 0 18 18" fill="none" xmlns="http://www.w3.org/2000/svg">
<path fill-rule="evenodd" clip-rule="evenodd" d="M16.5174 14.5572H1.34742C1.01942 14.5572 0.732422 14.8442 0.732422 15.1722V16.4022C0.732422 16.7302 1.01942 17.0172 1.34742 17.0172H16.5174C16.8454 17.0172 17.1324 16.7302 17.1324 16.4022V15.1722C17.1324 14.8442 16.8454 14.5572 16.5174 14.5572V14.5572ZM8.64543 12.9172C5.57043 12.7532 3.19244 10.0882 3.19244 7.01319V1.43719C3.19244 0.986187 3.56144 0.617188 4.01244 0.617188H4.83243C5.28343 0.617188 5.65243 0.986187 5.65243 1.43719V7.05419C5.65243 8.81719 6.96443 10.3342 8.72743 10.4572C10.6544 10.5802 12.2124 9.06319 12.2124 7.17719V1.43719C12.2124 0.986187 12.5814 0.617188 13.0324 0.617188H13.8524C14.3034 0.617188 14.6724 0.986187 14.6724 1.43719V7.17719C14.6724 10.4572 11.9254 13.0812 8.64543 12.9172V12.9172Z" fill="#54698D"/>
</svg>
