<?xml version="1.0" encoding="UTF-8" standalone="no"?>
<svg width="24px" height="24px" viewBox="0 0 24 24" version="1.1" xmlns="http://www.w3.org/2000/svg" xmlns:xlink="http://www.w3.org/1999/xlink">
  <path d="M19.16,3.545 C18.88,3.215 18.465,3 18,3 L6,3 C5.535,3 5.12,3.215 4.845,3.545 L3.46,5.225 C3.17,5.575 3,6.015 3,6.5 L3,19 C3,20.105 3.895,21 5,21 L19,21 C20.105,21 21,20.105 21,19 L21,6.5 C21,6.015 20.83,5.575 20.545,5.225 L19.16,3.545 Z M8.5,14 L10.7272727,14 L10.7272727,10 L13.2727273,10 L13.2727273,14 L15.5,14 L12,17.5 L8.5,14 Z M5.125,5 L5.94,4 L17.94,4 L18.875,5 L5.125,5 L5.125,5 Z" id="Shape" fill="#444"></path>
</svg>
