<svg width="19" height="17" viewBox="0 0 19 17" fill="none" xmlns="http://www.w3.org/2000/svg">
<path fill-rule="evenodd" clip-rule="evenodd" d="M10.3524 0.276619C10.7213 -0.0922063 11.3193 -0.0922063 11.6882 0.276619L18.3545 6.9418C19.2152 7.80238 19.2152 9.19765 18.3545 10.0582L11.6882 16.7234C11.3193 17.0922 10.7213 17.0922 10.3524 16.7234C9.98354 16.3545 9.98354 15.7566 10.3524 15.3878L16.2967 9.44446H17.3177C17.4429 9.44446 17.5625 9.42008 17.6719 9.37579C18.0181 9.23568 18.2623 8.89635 18.2623 8.50001C18.2623 8.10368 18.0181 7.76435 17.6719 7.62423C17.5625 7.57995 17.4429 7.55557 17.3177 7.55557H16.2967L10.3524 1.61227C9.98354 1.24344 9.98354 0.645444 10.3524 0.276619ZM0.9446 7.55557H16.2967L17.0187 8.27738C17.1416 8.40041 17.1416 8.59962 17.0187 8.72265L16.2967 9.44446H0.9446C0.422916 9.44446 0 9.0216 0 8.50001C0 7.97843 0.422916 7.55557 0.9446 7.55557Z" fill="black"/>
</svg>
