<svg width="19" height="28" viewBox="0 0 19 28" fill="none" xmlns="http://www.w3.org/2000/svg">
<path d="M7.41667 14C7.41667 13.5858 7.08088 13.25 6.66667 13.25C6.25245 13.25 5.91667 13.5858 5.91667 14H7.41667ZM0.25 19.5714C0.25 19.9856 0.585786 20.3214 1 20.3214C1.41421 20.3214 1.75 19.9856 1.75 19.5714H0.25ZM11.5833 19.5714C11.5833 19.9856 11.9191 20.3214 12.3333 20.3214C12.7475 20.3214 13.0833 19.9856 13.0833 19.5714H11.5833ZM5.91667 18.5584C5.91667 18.9726 6.25245 19.3084 6.66667 19.3084C7.08088 19.3084 7.41667 18.9726 7.41667 18.5584H5.91667ZM5.91667 14V21.4286H7.41667V14H5.91667ZM5.91667 21.4286C5.91667 24.9318 8.80145 27.75 12.3333 27.75V26.25C9.60581 26.25 7.41667 24.0795 7.41667 21.4286H5.91667ZM12.3333 27.75C15.8652 27.75 18.75 24.9318 18.75 21.4286H17.25C17.25 24.0795 15.0609 26.25 12.3333 26.25V27.75ZM18.75 21.4286V9.35714H17.25V21.4286H18.75ZM18.75 9.35714C18.75 4.31548 14.5966 0.25 9.5 0.25V1.75C13.7923 1.75 17.25 5.16777 17.25 9.35714H18.75ZM9.5 0.25C4.4034 0.25 0.25 4.31548 0.25 9.35714H1.75C1.75 5.16777 5.20776 1.75 9.5 1.75V0.25ZM0.25 9.35714V19.5714H1.75V9.35714H0.25ZM13.0833 19.5714V9.35714H11.5833V19.5714H13.0833ZM13.0833 9.35714C13.0833 7.39247 11.4669 5.82143 9.5 5.82143V7.32143C10.6626 7.32143 11.5833 8.24479 11.5833 9.35714H13.0833ZM9.5 5.82143C7.53308 5.82143 5.91667 7.39247 5.91667 9.35714H7.41667C7.41667 8.24479 8.33741 7.32143 9.5 7.32143V5.82143ZM5.91667 9.35714V18.5584H7.41667V9.35714H5.91667Z" fill="black"/>
</svg>
