<svg width="11" height="10" viewBox="0 0 11 10" fill="none" xmlns="http://www.w3.org/2000/svg">
<path d="M1.05709 9.76312C1.29947 10.0055 1.69894 10.001 1.93683 9.76312L5.78345 5.9165L9.63007 9.76312C9.86796 10.001 10.2674 10.0055 10.5053 9.76761C10.7477 9.52523 10.7432 9.12576 10.5053 8.88787L6.6587 5.04125L10.5053 1.19463C10.7432 0.95674 10.7477 0.557266 10.5053 0.314889C10.2674 0.0769998 9.86796 0.0814883 9.63007 0.319377L5.78345 4.166L1.93683 0.319377C1.69894 0.0814883 1.29947 0.0769998 1.05709 0.319377C0.819199 0.557266 0.823687 0.95674 1.06158 1.19463L4.9082 5.04125L1.06158 8.88787C0.823687 9.12576 0.819199 9.52523 1.05709 9.76312Z" fill="black"/>
</svg>
