<svg width="16" height="16" viewBox="0 0 16 16" fill="none" xmlns="http://www.w3.org/2000/svg">
<path fill-rule="evenodd" clip-rule="evenodd" d="M14.7999 4.80001H10.6666V1.00001C10.6666 0.733341 10.4666 0.466675 10.1332 0.466675H0.933236C0.666569 0.533341 0.399902 0.733341 0.399902 1.00001V14.8667C0.399902 15.1333 0.599902 15.4 0.933236 15.4H5.5999H10.2666H14.9332C15.1999 15.4 15.4666 15.2 15.4666 14.8667V5.33334C15.3332 5.06667 15.0666 4.80001 14.7999 4.80001ZM5.53324 14.4H1.3999V1.53334H9.66657V14.4H5.53324ZM10.6666 14.4H14.3333V5.80001H10.6666V14.4Z" fill="#1e92fe"/>
<path d="M8.53307 2.93335H2.59974C2.33307 2.93335 2.06641 3.13335 2.06641 3.46668C2.06641 3.80002 2.26641 4.00002 2.59974 4.00002H8.53307C8.79974 4.00002 9.06641 3.80002 9.06641 3.46668C9.06641 3.13335 8.79974 2.93335 8.53307 2.93335Z" fill="#1e92fe"/>
<path d="M8.53307 5.20001H2.59974C2.33307 5.20001 2.06641 5.40001 2.06641 5.73335C2.06641 6.06668 2.26641 6.26668 2.59974 6.26668H8.53307C8.79974 6.26668 9.06641 6.06668 9.06641 5.73335C9.06641 5.40001 8.79974 5.20001 8.53307 5.20001Z" fill="#1e92fe"/>
<path d="M8.53307 7.46667H2.59974C2.33307 7.46667 2.06641 7.66667 2.06641 8.00001C2.06641 8.33334 2.26641 8.53334 2.59974 8.53334H8.53307C8.79974 8.53334 9.06641 8.33334 9.06641 8.00001C9.06641 7.66667 8.79974 7.46667 8.53307 7.46667Z" fill="#1e92fe"/>
<path d="M8.53307 9.80002H2.59974C2.33307 9.80002 2.06641 10 2.06641 10.3334C2.06641 10.6667 2.26641 10.8667 2.59974 10.8667H8.53307C8.79974 10.8667 9.06641 10.6667 9.06641 10.3334C9.06641 10 8.79974 9.80002 8.53307 9.80002Z" fill="#1e92fe"/>
<path d="M8.53307 12.0667H2.59974C2.33307 12.0667 2.06641 12.2667 2.06641 12.6C2.06641 12.9333 2.26641 13.1333 2.59974 13.1333H8.53307C8.79974 13.1333 9.06641 12.9333 9.06641 12.6C9.06641 12.2667 8.79974 12.0667 8.53307 12.0667Z" fill="#1e92fe"/>
</svg>
