<svg width="16" height="16" viewBox="0 0 16 16" fill="none" xmlns="http://www.w3.org/2000/svg">
<path fill-rule="evenodd" clip-rule="evenodd" d="M14.602 1.05927C13.1897 -0.353091 10.8922 -0.353091 9.48057 1.05927L6.81511 3.724C7.09511 3.66873 7.38239 3.63964 7.67402 3.63964C7.94675 3.63964 8.21512 3.66727 8.47766 3.716L10.3075 1.88618C10.77 1.42291 11.386 1.16836 12.0413 1.16836C12.6958 1.16836 13.3118 1.42291 13.7744 1.88618C14.2377 2.34945 14.4929 2.96545 14.4929 3.62C14.4929 4.27455 14.2377 4.89055 13.7744 5.35382L9.72057 9.40764C8.79475 10.3335 7.17948 10.3335 6.25366 9.40764C5.77802 8.93273 5.54021 8.30945 5.5373 7.68473L4.5293 8.69273C4.69439 9.25636 4.98239 9.79091 5.42602 10.2353C6.13221 10.9407 7.05948 11.2942 7.98675 11.2942C8.91402 11.2942 9.84202 10.9407 10.5475 10.2353L14.602 6.18073C16.0137 4.76909 16.0137 2.47091 14.602 1.05927Z" fill="black"/>
<mask id="mask0" style="mask-type:alpha" maskUnits="userSpaceOnUse" x="0" y="4" width="12" height="12">
<path fill-rule="evenodd" clip-rule="evenodd" d="M0 4.36697H11.1315V15.6611H0V4.36697Z" fill="white"/>
</mask>
<g mask="url(#mask0)">
<path fill-rule="evenodd" clip-rule="evenodd" d="M1.05873 14.6019C2.47109 16.0142 4.76855 16.0142 6.18018 14.6019L8.84564 11.9372C8.56564 11.9924 8.27836 12.0215 7.98673 12.0215C7.714 12.0215 7.44564 11.9939 7.18309 11.9452L5.35327 13.775C4.89073 14.2382 4.27473 14.4928 3.61945 14.4928C2.96491 14.4928 2.34891 14.2382 1.88636 13.775C1.42309 13.3117 1.16782 12.6957 1.16782 12.0412C1.16782 11.3866 1.42309 10.7706 1.88636 10.3073L5.94018 6.25352C6.866 5.3277 8.48127 5.3277 9.40709 6.25352C9.88273 6.72843 10.1205 7.3517 10.1235 7.97643L11.1315 6.96843C10.9664 6.40479 10.6784 5.87025 10.2347 5.42588C9.52855 4.72043 8.60127 4.36697 7.674 4.36697C6.74673 4.36697 5.81873 4.72043 5.11327 5.42588L1.05873 9.48043C-0.352909 10.8921 -0.352909 13.1902 1.05873 14.6019Z" fill="black"/>
</g>
</svg>
