<?xml version="1.0" encoding="UTF-8" standalone="no"?>
<svg width="24px" height="24px" viewBox="0 0 24 24" version="1.1" xmlns="http://www.w3.org/2000/svg" xmlns:xlink="http://www.w3.org/1999/xlink">
  <path d="M6,19 C6,20.105 6.895,21 8,21 L16,21 C17.105,21 18,20.105 18,19 L18,7 L6,7 L6,19 L6,19 Z M19,4 L15.5,4 L14.5,3 L9.5,3 L8.5,4 L5,4 L5,6 L19,6 L19,4 L19,4 Z M8.5,14 L10.7272727,14 L10.7272727,10 L13.2727273,10 L13.2727273,14 L15.5,14 L12,17.5 L8.5,14 Z" id="Shape" fill="#444"></path>
</svg>
