<svg xmlns="http://www.w3.org/2000/svg" width="27.5" height="26.594" viewBox="0 0 27.5 26.594">
  <g id="Home" transform="translate(0.75 0.844)">
    <g id="Default">
      <path id="Path" d="M26,21.308V10.285a3.685,3.685,0,0,0-1.555-3L15.159.688a3.733,3.733,0,0,0-4.318,0L1.555,7.281a3.685,3.685,0,0,0-1.555,3V21.308A3.7,3.7,0,0,0,3.714,25H7.429a1.852,1.852,0,0,0,1.857-1.846V17.616a1.852,1.852,0,0,1,1.857-1.846h3.714a1.852,1.852,0,0,1,1.857,1.846v5.538A1.852,1.852,0,0,0,18.571,25h3.714A3.7,3.7,0,0,0,26,21.308Z" fill="none" stroke="#000" stroke-linecap="round" stroke-linejoin="round" stroke-miterlimit="10" stroke-width="1.5"/>
    </g>
  </g>
</svg>
