<svg width="25" height="23" viewBox="0 0 25 23" fill="none" xmlns="http://www.w3.org/2000/svg">
<path fill-rule="evenodd" clip-rule="evenodd" d="M12.4634 3.968C12.7789 3.67419 13.1048 3.3924 13.4058 3.08523C14.4686 2.00481 15.716 1.27563 17.212 1.07264C19.5222 0.76013 21.3769 1.58013 22.746 3.50992C23.441 4.48884 23.8664 5.57861 23.9737 6.78723C24.0627 7.79821 23.9213 8.78113 23.6177 9.74269C23.1792 11.1276 22.4685 12.3643 21.6269 13.5288C20.4725 15.1261 19.1151 16.5337 17.6701 17.8545C16.0602 19.3262 14.3482 20.6657 12.5969 21.9558C12.5367 21.9999 12.4935 22.0226 12.4202 21.9678C10.0721 20.2237 7.77767 18.4141 5.7319 16.2973C4.49501 15.0192 3.35498 13.6624 2.45447 12.1105C1.84977 11.0702 1.38512 9.9724 1.14167 8.7798C0.497701 5.62134 2.16652 3.06253 3.78036 1.96341C4.92301 1.18482 6.18607 0.887002 7.54731 1.03791C9.14544 1.21286 10.4818 1.93804 11.6035 3.09458C11.8692 3.36836 12.1284 3.64614 12.3888 3.92393C12.4229 3.95998 12.4464 4.00673 12.4739 4.04813C12.47 4.02142 12.4674 3.99471 12.4634 3.968Z" stroke="#AAB2C6" stroke-width="1.547" stroke-linecap="round" stroke-linejoin="round"/>
</svg>
