<svg width="24" height="22" viewBox="0 0 24 22" fill="none" xmlns="http://www.w3.org/2000/svg">
<path fill-rule="evenodd" clip-rule="evenodd" d="M11.9619 3.10933C12.291 2.80153 12.6311 2.50632 12.9452 2.18453C14.0542 1.05266 15.3558 0.288758 16.9169 0.0760955C19.3275 -0.251292 21.2628 0.607751 22.6914 2.62944C23.4167 3.65498 23.8606 4.79664 23.9726 6.06282C24.0654 7.12193 23.9179 8.15166 23.6011 9.15901C23.1435 10.6099 22.4019 11.9054 21.5237 13.1254C20.3191 14.7988 18.9028 16.2734 17.3949 17.6571C15.715 19.1989 13.9286 20.6022 12.1012 21.9537C12.0383 21.9999 11.9933 22.0237 11.9168 21.9663C9.46657 20.1391 7.07235 18.2433 4.93763 16.0258C3.64696 14.6868 2.45737 13.2653 1.51771 11.6396C0.886716 10.5497 0.401863 9.39965 0.147827 8.15026C-0.524138 4.84141 1.21724 2.16074 2.90125 1.00929C4.09358 0.193619 5.41156 -0.118379 6.83197 0.039719C8.49959 0.223 9.89406 0.982708 11.0645 2.19432C11.3418 2.48114 11.6122 2.77215 11.884 3.06316C11.9195 3.10094 11.9441 3.1499 11.9728 3.19328C11.9687 3.16529 11.966 3.13731 11.9619 3.10933Z" fill="#FF6C6C"/>
</svg>
