<?xml version="1.0" encoding="UTF-8"?>
<svg xmlns="http://www.w3.org/2000/svg" xmlns:xlink="http://www.w3.org/1999/xlink" width="64pt" height="64pt" viewBox="0 0 64 64" version="1.1">
<g id="surface1">
<path style=" stroke:none;fill-rule:nonzero;fill:rgb(100%,100%,100%);fill-opacity:1;" d="M 58.210938 0 L 5.789062 0 C 2.59375 0 0 2.59375 0 5.789062 L 0 58.210938 C 0 61.40625 2.59375 64 5.789062 64 L 58.210938 64 C 61.40625 64 64 61.40625 64 58.210938 L 64 5.789062 C 64 2.59375 61.40625 0 58.210938 0 Z M 19.804688 55.261719 C 19.804688 56.191406 19.050781 56.945312 18.121094 56.945312 L 10.949219 56.945312 C 10.015625 56.945312 9.261719 56.191406 9.261719 55.261719 L 9.261719 25.199219 C 9.261719 24.269531 10.015625 23.511719 10.949219 23.511719 L 18.121094 23.511719 C 19.050781 23.511719 19.804688 24.269531 19.804688 25.199219 Z M 14.535156 20.679688 C 10.769531 20.679688 7.71875 17.628906 7.71875 13.867188 C 7.71875 10.105469 10.769531 7.054688 14.535156 7.054688 C 18.296875 7.054688 21.347656 10.105469 21.347656 13.867188 C 21.347656 17.628906 18.296875 20.679688 14.535156 20.679688 Z M 57.285156 55.398438 C 57.285156 56.253906 56.589844 56.945312 55.734375 56.945312 L 48.039062 56.945312 C 47.183594 56.945312 46.488281 56.253906 46.488281 55.398438 L 46.488281 41.296875 C 46.488281 39.191406 47.105469 32.078125 40.992188 32.078125 C 36.25 32.078125 35.289062 36.949219 35.09375 39.132812 L 35.09375 55.398438 C 35.09375 56.253906 34.402344 56.945312 33.542969 56.945312 L 26.101562 56.945312 C 25.246094 56.945312 24.550781 56.253906 24.550781 55.398438 L 24.550781 25.0625 C 24.550781 24.207031 25.246094 23.511719 26.101562 23.511719 L 33.542969 23.511719 C 34.398438 23.511719 35.09375 24.207031 35.09375 25.0625 L 35.09375 27.683594 C 36.851562 25.046875 39.464844 23.007812 45.03125 23.007812 C 57.355469 23.007812 57.285156 34.523438 57.285156 40.847656 Z M 57.285156 55.398438 "/>
</g>
</svg>
