<svg xmlns="http://www.w3.org/2000/svg" width="25.36" height="26.644" viewBox="0 0 25.36 26.644">
  <g id="Group_7" data-name="Group 7" transform="translate(0.804 0.804)">
    <path id="Stroke_1" data-name="Stroke 1" d="M6.58,13.159h0A6.58,6.58,0,0,1,0,6.579H0A6.58,6.58,0,0,1,6.58,0h0a6.579,6.579,0,0,1,6.579,6.579h0A6.579,6.579,0,0,1,6.58,13.159Z" transform="translate(5.295)" fill="none" stroke="#000" stroke-linecap="round" stroke-linejoin="round" stroke-miterlimit="10" stroke-width="1.609"/>
    <path id="Stroke_3" data-name="Stroke 3" d="M0,11.875H0A11.875,11.875,0,0,1,11.875,0h0A11.876,11.876,0,0,1,23.751,11.875h0" transform="translate(0 13.16)" fill="none" stroke="#000" stroke-linecap="round" stroke-linejoin="round" stroke-miterlimit="10" stroke-width="1.609"/>
    <path id="Fill_5" data-name="Fill 5" d="M2.576.527a.656.656,0,0,0-1.286,0L0,9.527a.653.653,0,0,0,.193.54l1.286,1.286a.621.621,0,0,0,.9,0l1.286-1.286a.661.661,0,0,0,.193-.54Z" transform="translate(9.943 12.391)"/>
  </g>
</svg>
