<svg xmlns="http://www.w3.org/2000/svg" width="25.5" height="24.5" viewBox="0 0 25.5 24.5">
  <g id="Group_12" data-name="Group 12" transform="translate(-0.21 0.75)">
    <g id="Group_11" data-name="Group 11" transform="translate(0.96)">
      <path id="Stroke_1" data-name="Stroke 1" d="M9.231,4.6A4.615,4.615,0,1,1,4.615,0,4.608,4.608,0,0,1,9.231,4.6Z" transform="translate(7.385)" fill="none" stroke="#000" stroke-linecap="round" stroke-linejoin="round" stroke-miterlimit="10" stroke-width="1.5"/>
      <path id="Stroke_3" data-name="Stroke 3" d="M9.231,4.6A4.615,4.615,0,1,1,4.615,0,4.608,4.608,0,0,1,9.231,4.6Z" transform="translate(0 13.8)" fill="none" stroke="#000" stroke-linecap="round" stroke-linejoin="round" stroke-miterlimit="10" stroke-width="1.5"/>
      <path id="Stroke_5" data-name="Stroke 5" d="M9.231,4.6A4.615,4.615,0,1,1,4.615,0,4.608,4.608,0,0,1,9.231,4.6Z" transform="translate(14.769 13.8)" fill="none" stroke="#000" stroke-linecap="round" stroke-linejoin="round" stroke-miterlimit="10" stroke-width="1.5"/>
      <path id="Stroke_7" data-name="Stroke 7" d="M2.769,0,0,4.6" transform="translate(7.385 9.2)" fill="none" stroke="#000" stroke-linecap="round" stroke-linejoin="round" stroke-miterlimit="10" stroke-width="1.5"/>
      <path id="Stroke_9" data-name="Stroke 9" d="M2.769,4.6,0,0" transform="translate(13.846 9.2)" fill="none" stroke="#000" stroke-linecap="round" stroke-linejoin="round" stroke-miterlimit="10" stroke-width="1.5"/>
    </g>
  </g>
</svg>
