<svg xmlns="http://www.w3.org/2000/svg" width="25" height="27" viewBox="0 0 25 27">
  <g id="Thin_Copy" data-name="Thin Copy" transform="translate(-0.571)">
    <path id="Shape" d="M9.273,25.256a5.625,5.625,0,0,1-.792-2.346H2.355A2.365,2.365,0,0,1,.4,19.233L1.886,16.99a.469.469,0,0,0,.076-.212l1.617.181a2.114,2.114,0,0,1-.34.94L1.753,20.14.4,19.233l1.355.907a.728.728,0,0,0,.6,1.132h20.29V22.91H16.519a5.625,5.625,0,0,1-.792,2.346A3.67,3.67,0,0,1,12.5,27,3.669,3.669,0,0,1,9.273,25.256Zm1.37-.884a2.048,2.048,0,0,0,1.858.992,2.051,2.051,0,0,0,1.858-.992,3.867,3.867,0,0,0,.519-1.462H10.123A3.867,3.867,0,0,0,10.642,24.372Zm12-3.1a.728.728,0,0,0,.6-1.132l1.355-.907a2.366,2.366,0,0,1-1.957,3.677ZM21.76,17.9a2.136,2.136,0,0,1-.34-.94l1.617-.181-1.617.181-.694-6.282a8.272,8.272,0,0,0-16.452,0l-.695,6.282-1.617-.181L2.657,10.5a9.931,9.931,0,0,1,9.03-8.826V.818h1.627v.851a9.931,9.931,0,0,1,9.03,8.826l.694,6.282a.481.481,0,0,0,.077.212L24.6,19.233l-1.355.907ZM11.687.818a.814.814,0,1,1,1.627,0Z" transform="translate(0.571)"/>
  </g>
</svg>
