<svg width="33" height="28" viewBox="0 0 33 28" fill="none" xmlns="http://www.w3.org/2000/svg">
<path fill-rule="evenodd" clip-rule="evenodd" d="M26.4538 27H6.54621C3.48303 27 1 24.4964 1 21.4078V6.59215C1 3.5036 3.48303 1 6.54621 1H26.4538C29.517 1 32 3.5036 32 6.59215V21.4078C32 24.4964 29.517 27 26.4538 27Z" stroke="black" stroke-width="1.609" stroke-linecap="round" stroke-linejoin="round"/>
<path d="M3 26L19.0483 13L32 18.5198" stroke="black" stroke-width="1.609" stroke-linecap="round" stroke-linejoin="round"/>
<path fill-rule="evenodd" clip-rule="evenodd" d="M8 11C6.34266 11 5 9.65618 5 8.00075C5 6.34382 6.34266 5 8 5C9.65734 5 11 6.34382 11 8.00075C11 9.65618 9.65734 11 8 11Z" fill="black"/>
</svg>
