<svg width="24" height="24" viewBox="0 0 24 24" fill="none" xmlns="http://www.w3.org/2000/svg">
<path fill-rule="evenodd" clip-rule="evenodd" d="M7 6V3C7 2.44772 7.44772 2 8 2H20C20.5523 2 21 2.44772 21 3V17C21 17.5523 20.5523 18 20 18H17V21C17 21.552 16.55 22 15.993 22H4.007C3.74065 22.0016 3.48465 21.897 3.29566 21.7093C3.10666 21.5216 3.00026 21.2664 3 21L3.003 7C3.003 6.448 3.453 6 4.009 6H7ZM5.002 8L5 20H15V8H5.002ZM17 6H9V4H19V16H17V6ZM7 11H13V13H7V11ZM13 15H7V17H13V15Z" fill="#91919C"/>
</svg>
