<svg width="25" height="18" viewBox="0 0 25 18" fill="none" xmlns="http://www.w3.org/2000/svg">
<mask id="mask0" mask-type="alpha" maskUnits="userSpaceOnUse" x="0" y="1" width="25" height="16">
<path fill-rule="evenodd" clip-rule="evenodd" d="M0 1H25V17H0V1Z" fill="white"/>
</mask>
<g mask="url(#mask0)">
<path fill-rule="evenodd" clip-rule="evenodd" d="M22.4803 10.2553C20.0256 11.9307 17.7652 13.4443 15.5683 14.8846C15.2906 15.0665 14.9846 15.1622 14.6857 15.1622C13.8714 15.1622 13.2584 14.4982 13.2278 13.5813C13.2196 13.306 13.2207 13.0307 13.2231 12.7543C13.2254 12.4778 13.2278 12.2025 13.2184 11.926C13.2054 11.5834 13.0325 11.1757 12.5841 11.1604C11.9393 11.1379 11.4439 11.1273 10.9779 11.1273C9.38465 11.1273 7.3054 11.2395 5.34383 12.121C4.83431 12.349 4.34127 12.5983 3.81881 12.863C3.57876 12.9847 3.33636 13.1075 3.09042 13.2281L2.39028 13.5742L2.5056 12.7992C2.95746 9.7508 5.59799 7.31211 8.78453 7.00136C9.64941 6.91629 10.5284 6.91039 11.378 6.90566C11.6051 6.90448 11.8334 6.90211 12.0617 6.89975C13.0701 6.88675 13.2219 6.73079 13.2231 5.70876L13.2207 5.32831C13.2184 5.02111 13.2148 4.71273 13.2301 4.40671C13.2713 3.53474 13.9185 2.87899 14.7352 2.87899C15.0282 2.87899 15.32 2.96878 15.58 3.13892C17.804 4.59458 20.0657 6.1093 22.492 7.76936C22.9251 8.06475 23.1733 8.51491 23.1733 9.00407C23.1733 9.49913 22.9204 9.9552 22.4803 10.2553ZM23.6629 6.32553C21.3059 4.6442 18.8995 3.02786 16.4461 1.49068C14.401 0.209897 11.7287 1.57575 11.3956 3.97545C11.3486 4.30746 11.3403 4.6442 11.3086 5.03883C10.7991 5.03883 10.3048 5.02465 9.81297 5.0412C2.89509 5.26687 0.0992257 10.8827 0.00038205 15.9113C-0.0113851 16.5234 0.513428 17.0491 1.0959 16.9723C1.44656 16.9263 1.83017 16.7089 2.09022 16.4572C4.65898 13.9642 7.71137 12.824 11.3509 13.0437C11.3509 13.2954 11.3403 13.4915 11.3521 13.6853C11.5063 16.2362 14.3162 17.8538 16.4449 16.5234C18.8995 14.9897 21.3047 13.371 23.6617 11.6897C25.4456 10.4172 25.4467 7.59804 23.6629 6.32553Z" fill="black"/>
</g>
</svg>
