<svg xmlns="http://www.w3.org/2000/svg" width="15.999" height="16.002" viewBox="0 0 15.999 16.002">
  <path id="Fill_682_Copy" data-name="Fill 682 Copy" d="M14.365,16a.746.746,0,0,1-.531-.22l-3.116-3.116a.742.742,0,0,1-.219-.531v-.509A6.438,6.438,0,0,1,6.5,13,6.5,6.5,0,1,1,13,6.5a6.437,6.437,0,0,1-1.374,4h.509a.742.742,0,0,1,.531.219l3.116,3.116a.753.753,0,0,1,0,1.062l-.884.885A.739.739,0,0,1,14.365,16ZM6.5,2.5a4,4,0,1,0,4,4A4,4,0,0,0,6.5,2.5Z" transform="translate(0 0)" fill="#1e92fe"/>
</svg>
