<svg width="24" height="24" viewBox="0 0 24 24" fill="none" xmlns="http://www.w3.org/2000/svg">
<path fill-rule="evenodd" clip-rule="evenodd" d="M10 13C6.685 13 4 10.315 4 7C4 3.685 6.685 1 10 1C13.315 1 16 3.685 16 7C16 10.315 13.315 13 10 13ZM2 22C2 17.5817 5.58172 14 10 14C14.4183 14 18 17.5817 18 22H16C16 18.6863 13.3137 16 10 16C6.68629 16 4 18.6863 4 22H2ZM14 7C14 9.21 12.21 11 10 11C7.79 11 6 9.21 6 7C6 4.79 7.79 3 10 3C12.21 3 14 4.79 14 7ZM18.284 14.703C21.1546 15.9958 23.0003 18.8517 23 22H21C21.0005 19.6387 19.6161 17.4966 17.463 16.527L18.283 14.703H18.284ZM21 8.5C21.0008 6.27126 19.6566 4.26235 17.596 3.413L17.041 5.356C18.4214 6.03085 19.2002 7.52711 18.9612 9.04493C18.7221 10.5628 17.521 11.7472 16 11.965V13.978C18.8326 13.7199 21.0009 11.3443 21 8.5Z" fill="#91919C"/>
</svg>
