<?xml version="1.0" encoding="UTF-8"?>
<svg xmlns="http://www.w3.org/2000/svg" xmlns:xlink="http://www.w3.org/1999/xlink" width="64pt" height="64pt" viewBox="0 0 64 64" version="1.1">
<g id="surface1">
<path style=" stroke:none;fill-rule:nonzero;fill:#fff;fill-opacity:1;" d="M 59.382812 0 L 4.617188 0 C 2.066406 0 0 2.066406 0 4.617188 L 0 59.382812 C 0 61.933594 2.066406 64 4.617188 64 L 59.382812 64 C 61.933594 64 64 61.933594 64 59.382812 L 64 4.617188 C 64 2.066406 61.933594 0 59.382812 0 Z M 46.609375 24.949219 C 46.625 25.265625 46.632812 25.582031 46.632812 25.898438 C 46.632812 35.605469 39.242188 46.796875 25.734375 46.796875 C 21.585938 46.796875 17.726562 45.582031 14.476562 43.496094 C 15.050781 43.566406 15.636719 43.597656 16.226562 43.597656 C 19.667969 43.597656 22.835938 42.425781 25.351562 40.457031 C 22.136719 40.394531 19.425781 38.273438 18.488281 35.355469 C 18.9375 35.441406 19.398438 35.488281 19.867188 35.488281 C 20.539062 35.488281 21.1875 35.394531 21.804688 35.226562 C 18.445312 34.554688 15.914062 31.585938 15.914062 28.027344 C 15.914062 27.996094 15.914062 27.964844 15.914062 27.933594 C 16.902344 28.484375 18.035156 28.816406 19.242188 28.851562 C 17.269531 27.535156 15.972656 25.289062 15.972656 22.738281 C 15.972656 21.394531 16.335938 20.132812 16.96875 19.046875 C 20.589844 23.492188 26.003906 26.414062 32.105469 26.722656 C 31.980469 26.183594 31.914062 25.621094 31.914062 25.046875 C 31.914062 20.992188 35.207031 17.703125 39.261719 17.703125 C 41.375 17.703125 43.28125 18.59375 44.621094 20.023438 C 46.296875 19.691406 47.867188 19.082031 49.285156 18.242188 C 48.738281 19.953125 47.574219 21.394531 46.058594 22.304688 C 47.542969 22.125 48.957031 21.730469 50.273438 21.144531 C 49.292969 22.621094 48.046875 23.914062 46.609375 24.949219 Z M 46.609375 24.949219 "/>
</g>
</svg>
