<svg xmlns="http://www.w3.org/2000/svg" width="23.5" height="23.5" viewBox="0 0 23.5 23.5">
  <g id="Group_9" data-name="Group 9" transform="translate(0.75 0.75)">
    <path id="Stroke_1" data-name="Stroke 1" d="M6.083,9H2.917A2.916,2.916,0,0,1,0,6.084V2.918A2.916,2.916,0,0,1,2.917,0H6.083A2.917,2.917,0,0,1,9,2.918V6.084A2.917,2.917,0,0,1,6.083,9Z" fill="none" stroke="#000" stroke-linecap="round" stroke-linejoin="round" stroke-miterlimit="10" stroke-width="1.5"/>
    <path id="Stroke_3" data-name="Stroke 3" d="M6.083,9H2.917A2.916,2.916,0,0,1,0,6.084V2.918A2.916,2.916,0,0,1,2.917,0H6.083A2.917,2.917,0,0,1,9,2.918V6.084A2.917,2.917,0,0,1,6.083,9Z" transform="translate(13)" fill="none" stroke="#000" stroke-linecap="round" stroke-linejoin="round" stroke-miterlimit="10" stroke-width="1.5"/>
    <path id="Stroke_5" data-name="Stroke 5" d="M6.083,9H2.917A2.916,2.916,0,0,1,0,6.084V2.918A2.916,2.916,0,0,1,2.917,0H6.083A2.917,2.917,0,0,1,9,2.918V6.084A2.917,2.917,0,0,1,6.083,9Z" transform="translate(0 13)" fill="none" stroke="#000" stroke-linecap="round" stroke-linejoin="round" stroke-miterlimit="10" stroke-width="1.5"/>
    <path id="Stroke_7" data-name="Stroke 7" d="M6.083,9H2.917A2.916,2.916,0,0,1,0,6.084V2.918A2.916,2.916,0,0,1,2.917,0H6.083A2.917,2.917,0,0,1,9,2.918V6.084A2.917,2.917,0,0,1,6.083,9Z" transform="translate(13 13)" fill="none" stroke="#000" stroke-linecap="round" stroke-linejoin="round" stroke-miterlimit="10" stroke-width="1.5"/>
  </g>
</svg>
